<svg xmlns="http://www.w3.org/2000/svg" width="55.719" height="37.146" viewBox="0 0 55.719 37.146">
  <path id="Icon_awesome-folder-open" data-name="Icon awesome-folder-open" d="M55.4,26.565l-7.006,12.01a6.191,6.191,0,0,1-5.348,3.072H4.355A2.322,2.322,0,0,1,2.35,38.155l7.006-12.01A6.191,6.191,0,0,1,14.7,23.073H53.394A2.322,2.322,0,0,1,55.4,26.565ZM14.7,19.978H46.433V15.334a4.643,4.643,0,0,0-4.643-4.643H26.312L20.121,4.5H4.643A4.643,4.643,0,0,0,0,9.143v26.9L6.682,24.585A9.318,9.318,0,0,1,14.7,19.978Z" transform="translate(0 -4.5)" fill="#378dae"/>
</svg>
