<svg xmlns="http://www.w3.org/2000/svg" width="38.949" height="38.949" viewBox="0 0 38.949 38.949">
  <path id="Icon_awesome-history" data-name="Icon awesome-history" d="M39.511,20a19.475,19.475,0,0,1-31.7,15.2,1.883,1.883,0,0,1-.144-2.8l.885-.885a1.888,1.888,0,0,1,2.5-.156,14.45,14.45,0,1,0-.922-21.854l3.986,3.986a1.256,1.256,0,0,1-.888,2.145H1.819A1.256,1.256,0,0,1,.563,14.383V2.968a1.256,1.256,0,0,1,2.145-.888L6.584,5.956A19.474,19.474,0,0,1,39.511,20ZM25.305,26.187l.771-.992a1.885,1.885,0,0,0-.331-2.645l-3.2-2.486V11.87a1.885,1.885,0,0,0-1.885-1.885H19.409a1.885,1.885,0,0,0-1.885,1.885V22.522l5.136,3.995a1.885,1.885,0,0,0,2.645-.331Z" transform="translate(-0.563 -0.563)" fill="#378dae"/>
</svg>
