<svg xmlns="http://www.w3.org/2000/svg" width="59.526" height="59.526" viewBox="0 0 59.526 59.526">
  <path id="Icon_awesome-question-circle" data-name="Icon awesome-question-circle" d="M59.088,29.826A29.263,29.263,0,1,1,29.825.563,29.261,29.261,0,0,1,59.088,29.826ZM30.611,10.238c-6.43,0-10.532,2.709-13.752,7.523a1.418,1.418,0,0,0,.32,1.918l4.094,3.1a1.415,1.415,0,0,0,1.966-.25C25.347,19.86,26.793,18.31,30,18.31c2.411,0,5.392,1.551,5.392,3.889,0,1.767-1.459,2.675-3.839,4.009-2.776,1.556-6.449,3.493-6.449,8.337v.472a1.416,1.416,0,0,0,1.416,1.416h6.608a1.416,1.416,0,0,0,1.416-1.416V34.86c0-3.358,9.816-3.5,9.816-12.586C44.361,15.43,37.262,10.238,30.611,10.238ZM29.825,39.5a5.428,5.428,0,1,0,5.428,5.428A5.434,5.434,0,0,0,29.825,39.5Z" transform="translate(-0.063 -0.063)" fill="#378dae" stroke="#378dae" stroke-width="1"/>
</svg>
