<svg xmlns="http://www.w3.org/2000/svg" width="68.411" height="47.888" viewBox="0 0 68.411 47.888">
  <path id="Icon_awesome-user-friends" data-name="Icon awesome-user-friends" d="M20.523,26.194A11.972,11.972,0,1,0,8.551,14.222,11.966,11.966,0,0,0,20.523,26.194Zm8.209,3.421h-.887a16.529,16.529,0,0,1-14.644,0h-.887A12.317,12.317,0,0,0,0,41.928v3.078a5.132,5.132,0,0,0,5.131,5.131H35.916a5.132,5.132,0,0,0,5.131-5.131V41.928A12.317,12.317,0,0,0,28.733,29.614Zm22.576-3.421A10.262,10.262,0,1,0,41.047,15.932,10.264,10.264,0,0,0,51.308,26.194Zm5.131,3.421h-.406a13.479,13.479,0,0,1-9.449,0h-.406a11.872,11.872,0,0,0-5.954,1.646,15.643,15.643,0,0,1,4.244,10.668v4.1c0,.235-.053.46-.064.684H63.28a5.132,5.132,0,0,0,5.131-5.131A11.966,11.966,0,0,0,56.439,29.614Z" transform="translate(0 -2.25)" fill="#fff"/>
</svg>
